<svg class="MuiSvgIcon-root" viewBox="0 0 256 250" xmlns="http://www.w3.org/2000/svg" preserveAspectRatio="xMidYMid"><path d="M128 0a128 128 0 00-40 249c6 2 8-2 8-6v-24c-36 8-43-15-43-15-6-14-14-18-14-18-12-8 1-8 1-8 12 1 19 13 19 13 12 20 30 14 38 11 1-9 4-14 8-17-29-4-59-15-59-64 0-14 5-25 14-34-2-3-6-16 1-34 0 0 11-3 35 13a123 123 0 0164 0c24-16 35-13 35-13 7 18 3 31 1 34 9 9 14 20 14 34 0 49-30 60-59 63 5 4 9 12 9 24v35c0 4 2 8 9 6A128 128 0 00128 0zM48 182l-2 1-1-2 2-1 1 2zm6 6l-2-1-1-2h3v3zm5 7c-1 1-3 0-3-1v-3c1-1 2 0 3 1v3zm7 8h-3c-2-1-2-3-1-3h3l1 3zm9 3c0 1-1 2-3 1l-2-2c0-1 2-2 3-1 2 0 3 1 2 2zm11 1c0 2-1 2-3 2l-2-1c0-2 1-2 2-2l3 1zm11 0c0 1-1 2-3 2-1 1-3 0-3-1s1-2 3-2c1-1 2 0 3 1z"/></svg>