<svg xmlns="http://www.w3.org/2000/svg" viewBox="1 1 46 46" class="MuiSvgIcon-root" preserveAspectRatio="xMidYMid"><path fill="#FFF" d="M14 1.3v11.4c0 .7-.6 1.3-1.3 1.3H1.3C.6 14 0 13.4 0 12.7V1.3C0 .6.6 0 1.3 0h11.4c.7 0 1.3.6 1.3 1.3"/><path d="M14 1.3v11.4c0 .7-.6 1.3-1.3 1.3H1.3C.6 14 0 13.4 0 12.7V1.3C0 .6.6 0 1.3 0h11.4c.7 0 1.3.6 1.3 1.3zM5 5h1.9v1c.4-.5 1.1-1 2.3-1 2 0 2.8.8 2.8 3v4h-2V8.7C10 7.3 9.7 7 8.6 7 7.5 6.9 7 7.7 7 9v3H5V5zm-3 7h2V5H2v7zm2.3-9a1.3 1.3 0 11-2.6 0 1.3 1.3 0 012.6 0z"/><rect width="46" height="46" x="0" y="0" fill="#FFF" rx="4"/><path d="M0 4a4 4 0 014-4h40a4 4 0 014 4v40a4 4 0 01-4 4H4a4 4 0 01-4-4V4zm19 14.3h6.5v3.3c1-2 3.3-3.6 7-3.6 6.9 0 8.5 3.7 8.5 10.6v12.7h-7V30.2c0-4-1-6.2-3.3-6.2-3.3 0-4.7 2.4-4.7 6.2v11.1h-7v-23zM7 41h7V18H7v23zm8-30.5a4.5 4.5 0 11-9 0 4.5 4.5 0 019 0z"/><path fill="#FFF" d="M19.5 0h-18C.8 0 0 .7 0 1.5v18c0 .8.5 1.5 1.3 1.5h18c.8 0 1.7-.7 1.7-1.5v-18c0-.8-.7-1.5-1.5-1.5"/><path d="M19.5 0h-18C.8 0 0 .7 0 1.5v18c0 .8.5 1.5 1.3 1.5h18c.8 0 1.7-.7 1.7-1.5v-18c0-.8-.7-1.5-1.5-1.5zM8 8h2.8v1.4c.5-.7 1.8-1.5 3.3-1.5 3 0 3.9 1.6 3.9 4.5V18h-3v-5c0-1.3-.5-2.5-1.8-2.5-1.5 0-2.2 1-2.2 2.7V18H8V8zM3 18h3V8H3v10zM6.4 4.5a1.9 1.9 0 11-3.8 0 1.9 1.9 0 013.8 0z"/><g fill-rule="evenodd"><rect width="46" height="46" x="1" y="1" fill="#FFF" rx="4"/><path d="M0 4a4 4 0 014-4h40a4 4 0 014 4v40a4 4 0 01-4 4H4a4 4 0 01-4-4V4zm19 14.3h6.5v3.3c1-2 3.3-3.6 7-3.6 6.9 0 8.5 3.7 8.5 10.6v12.7h-7V30.2c0-4-1-6.2-3.3-6.2-3.3 0-4.7 2.4-4.7 6.2v11.1h-7v-23zM7 41h7V18H7v23zm8-30.5a4.5 4.5 0 11-9 0 4.5 4.5 0 019 0z"/></g></svg>
